<svg width="119" height="32" viewBox="0 0 119 32" fill="none" xmlns="http://www.w3.org/2000/svg">
<g clip-path="url(#clip0_10019_30470)">
<path d="M73.3309 0.502439C73.3392 0.468839 73.3392 0.432039 73.3309 0.398439C73.3309 0.192039 73.168 0.0176388 72.9535 3.87627e-05H68.1328C67.8102 -0.00316124 67.5209 0.192039 67.4128 0.484839L62.6104 13.2576C62.6021 13.2912 62.6021 13.328 62.6104 13.3616C62.6104 13.5712 62.7883 13.7424 63.0062 13.7424H67.8451C68.166 13.7408 68.4521 13.5472 68.5651 13.2576L73.3492 0.502439" fill="#EA0029"/>
<path d="M93.6213 3.49605H98.3704C98.5783 3.49605 98.7479 3.65765 98.7479 3.85925C98.7479 3.86565 98.7479 3.87045 98.7479 3.87685C98.7546 3.91685 98.7546 3.95845 98.7479 3.99845C97.3627 7.64965 95.4205 12.8944 95.2941 13.2048V13.3088C95.2941 13.5184 95.472 13.6896 95.6899 13.6896H100.402C100.723 13.688 101.009 13.4944 101.122 13.2048L104.611 3.91045C104.736 3.64325 105.009 3.46885 105.313 3.46085H111.5C111.796 3.45765 112.064 3.28965 112.184 3.02885L113.102 0.571248C113.112 0.531248 113.112 0.489648 113.102 0.449648C113.102 0.246448 112.936 0.0784477 112.724 0.0688477H94.9183C94.5974 0.0704477 94.3114 0.264048 94.1983 0.553648C94.0536 0.899248 93.4433 2.54405 93.2638 3.01125C93.2554 3.04485 93.2554 3.08165 93.2638 3.11525C93.2638 3.32805 93.4384 3.50405 93.6595 3.51365" fill="#EA0029"/>
<path d="M44.1924 0H29.624C26.6176 0.2096 24.1366 2.3424 23.5812 5.192C23.5629 5.3696 23.5629 5.5504 23.5812 5.728C23.5812 7.1616 24.7884 8.3232 26.2783 8.3232H34.7507C35.0699 8.3568 35.336 8.5776 35.4158 8.8768C35.4275 8.928 35.4275 8.9808 35.4158 9.032C35.3959 9.6784 34.8471 10.192 34.1753 10.192H22.5203C22.1977 10.1888 21.9083 10.384 21.8002 10.6768L20.8657 13.1856V13.3072C20.8657 13.5168 21.0436 13.688 21.2615 13.688H35.3626C38.5487 13.6912 41.2857 11.5088 41.8744 8.496C41.8927 8.3184 41.8927 8.1376 41.8744 7.96C41.8744 6.5232 40.6688 5.3568 39.1772 5.3472H30.7947C30.4472 5.3424 30.1462 5.1168 30.058 4.7936V4.6384C30.0863 3.9904 30.6417 3.4784 31.3168 3.4784H42.9187C43.2363 3.4832 43.524 3.2976 43.6387 3.0112L44.5915 0.5024V0.3808C44.5882 0.1712 44.4119 0 44.1924 0Z" fill="#EA0029"/>
<path d="M65.0399 0H50.4532C47.4533 0.2176 44.9823 2.3472 44.4269 5.192C44.4169 5.3712 44.4169 5.5504 44.4269 5.728C44.4369 7.1648 45.6491 8.3248 47.1424 8.3232H55.6147C55.934 8.3568 56.2 8.5776 56.2799 8.8768C56.2915 8.928 56.2915 8.9808 56.2799 9.032C56.2599 9.6784 55.7111 10.192 55.0393 10.192H43.366C43.0434 10.1888 42.7541 10.384 42.646 10.6768L41.7114 13.1856V13.3072C41.7114 13.5168 41.8894 13.688 42.1072 13.688H56.2083C59.3927 13.6832 62.1248 11.5056 62.7201 8.496C62.7384 8.3184 62.7384 8.1376 62.7201 7.96C62.6902 6.544 61.4946 5.408 60.023 5.3984H51.6404C51.2929 5.3936 50.9919 5.168 50.9038 4.8448V4.6896C50.9321 4.048 51.4775 3.5392 52.1443 3.5296H63.7644C64.082 3.5344 64.3697 3.3488 64.4845 3.0624L65.419 0.5008V0.3792C65.4173 0.1712 65.2411 0 65.0216 0" fill="#EA0029"/>
<path d="M92.0199 1.3086e-05H79.2491C76.2426 0.209613 73.7616 2.34241 73.2062 5.19201C73.1879 5.36961 73.1879 5.55041 73.2062 5.72801C73.2062 7.16161 74.4135 8.32321 75.9034 8.32321H84.3757C84.695 8.35681 84.961 8.57761 85.0409 8.87681C85.0525 8.92801 85.0525 8.98081 85.0409 9.03201C85.0209 9.67841 84.4722 10.192 83.8004 10.192H72.1453C71.826 10.1856 71.54 10.3824 71.4436 10.6768L70.4907 13.1856V13.4112C70.4808 13.6112 70.6421 13.7824 70.8499 13.792C70.8566 13.792 70.8616 13.792 70.8682 13.792H84.9694C88.1554 13.7952 90.8925 11.6128 91.4812 8.60001C91.4995 8.42241 91.4995 8.24161 91.4812 8.06401C91.5111 6.62081 90.3188 5.42721 88.8206 5.39841H80.4197C80.0722 5.39361 79.7712 5.16801 79.6831 4.84481V4.68961C79.7114 4.04161 80.2668 3.52961 80.9419 3.52961H90.7445C91.0621 3.53441 91.3498 3.34881 91.4645 3.06241L92.3991 0.500813C92.409 0.460813 92.409 0.419213 92.3991 0.379213C92.409 0.179213 92.2477 0.00801309 92.0399 -0.00158691C92.0332 -0.00158691 92.0282 -0.00158691 92.0216 -0.00158691" fill="#EA0029"/>
<path d="M22.7531 2.6304C22.7431 1.1936 21.5308 0.0335987 20.0376 0.0351987H9.65961C6.92419 0.0255987 4.4698 1.6448 3.49037 4.1024L2.84351 5.8336C2.84351 5.9552 2.75371 6.0592 2.71713 6.1632L1.60134 9.1056C0.720023 11.44 0.0182916 13.344 0 13.344V13.4656C0.0266059 13.6464 0.187904 13.7792 0.377472 13.7776H5.16155C5.47916 13.7776 5.76185 13.5824 5.86328 13.2928L7.42804 9.1392C7.61428 8.7088 8.04164 8.4192 8.52554 8.3952H14.4437C14.6233 8.4288 14.753 8.5824 14.7497 8.7584L14.4803 9.52L13.0951 13.2064V13.328C13.1034 13.5344 13.2764 13.6992 13.4909 13.7088H18.24C18.561 13.7072 18.847 13.5136 18.96 13.224C18.96 13.224 19.1579 12.688 19.3924 12.064L19.5005 11.7696C19.9328 10.6448 21.6223 6.1968 22.6483 3.4112C22.7431 3.1376 22.7913 2.8512 22.793 2.5632L22.7531 2.6304ZM15.059 5.4368H9.89741C9.56151 5.4224 9.27549 5.1968 9.19567 4.8832C9.18736 4.832 9.18736 4.7792 9.19567 4.728C9.22394 4.1472 9.67624 3.6688 10.2749 3.5856H15.6709C15.9902 3.6064 16.2595 3.824 16.336 4.1216C16.3477 4.1728 16.3477 4.2256 16.336 4.2768V4.5024L16.228 4.7792C16.0168 5.184 15.5844 5.4384 15.1122 5.4368H15.059Z" fill="#EA0029"/>
<path d="M57.8097 18.1888H45.0039C42.2685 18.1792 39.8141 19.7984 38.8347 22.256C38.4023 23.3808 37.5044 25.7168 36.4784 28.4864C36.3703 28.7568 36.3154 29.0448 36.3171 29.3344C36.3271 30.7712 37.5393 31.9312 39.0326 31.9296H52.6481C52.9724 31.9376 53.2651 31.7408 53.3682 31.4448L54.321 28.9872V28.8144C54.331 28.6144 54.1697 28.4432 53.9618 28.4336C53.9552 28.4336 53.9502 28.4336 53.9435 28.4336H42.6127C42.3949 28.4336 42.217 28.2624 42.217 28.0528C42.4148 27.568 44.0162 23.5008 44.3937 22.2896C44.5001 21.9936 44.7878 21.792 45.1137 21.7872H56.4993C56.8153 21.7872 57.1013 21.6032 57.2194 21.32L58.2271 18.7248V18.6032C58.2271 18.3936 58.0491 18.2224 57.8313 18.2224" fill="#EA0029"/>
<path d="M118.892 20.8032C118.882 19.3632 117.671 18.2 116.176 18.1904H102.579C102.243 18.1952 101.949 18.4032 101.843 18.7088L97.1482 31.1872V31.4128C97.1482 31.464 97.1482 31.4128 97.1482 31.4128V31.5344C97.1482 31.744 97.3261 31.9152 97.544 31.9152H113.102C114.329 31.9008 115.395 31.1008 115.709 29.96C116.142 28.8352 117.831 24.4048 118.857 21.6176C118.952 21.3504 119 21.0688 119.002 20.7872L118.892 20.8032ZM112.724 22.1888C112.526 22.6912 110.925 26.7408 110.548 27.952C110.451 28.2544 110.157 28.4608 109.828 28.4544H104.432C104.217 28.4448 104.046 28.28 104.036 28.0736C104.028 28.0272 104.028 27.9808 104.036 27.9344C104.215 27.4496 105.835 23.4 106.213 22.1888C106.309 21.8864 106.603 21.68 106.933 21.6864H112.329C112.546 21.6864 112.724 21.8576 112.724 22.0672V22.1888Z" fill="#EA0029"/>
<path d="M78.0984 20.7856C78.0884 19.3488 76.8762 18.1888 75.3829 18.1904H65.0049C62.2695 18.1808 59.8151 19.7999 58.8357 22.2575L58.1888 23.9887C58.1389 24.0895 58.0974 24.1936 58.0624 24.3008L56.9467 27.2608L55.3453 31.5008V31.6223C55.347 31.6511 55.347 31.6799 55.3453 31.7087C55.3802 31.8815 55.5399 32.0064 55.7228 32.0031H60.4886C60.8112 32.0064 61.1005 31.8112 61.2086 31.5184L62.7734 27.3647C62.9563 26.9311 63.3853 26.64 63.8709 26.6208H69.789C69.9753 26.6608 70.1083 26.8175 70.1133 27.0015L69.8439 27.7632L68.4587 31.4495V31.5712C68.4587 31.7808 68.6366 31.9519 68.8545 31.9519H73.6036C73.9212 31.9519 74.2039 31.7567 74.3054 31.4671C74.3054 31.4671 74.5033 30.9311 74.7377 30.3071L74.8458 30.0127C75.2781 28.8879 76.9676 24.4399 77.9936 21.6704C78.0884 21.3967 78.1366 21.1103 78.1383 20.8223L78.0984 20.7856ZM70.4575 23.5919H65.2411C64.9052 23.5775 64.6191 23.352 64.5393 23.0384C64.531 22.9872 64.531 22.9344 64.5393 22.8832C64.5659 22.3088 65.0099 21.8304 65.6002 21.7408H71.1043C71.422 21.7712 71.683 21.9951 71.7512 22.2943C71.7545 22.3455 71.7545 22.3983 71.7512 22.4495C71.7595 22.5183 71.7595 22.5887 71.7512 22.6575C71.7279 22.7535 71.6913 22.8479 71.6431 22.9343C71.4402 23.3391 71.0129 23.5967 70.5456 23.5919H70.4558H70.4575Z" fill="#EA0029"/>
<path d="M96.5695 18.1888H81.7118C81.3909 18.1904 81.1048 18.384 80.9918 18.6736L76.2077 31.4288C76.1977 31.4624 76.1977 31.4992 76.2077 31.5328C76.2077 31.7424 76.3856 31.9136 76.6035 31.9136H81.3875C81.7085 31.912 81.9945 31.7184 82.1076 31.4288L83.6723 27.2752C83.8536 26.8144 84.3125 26.5104 84.823 26.5136H90.5965C90.8143 26.5136 90.9923 26.6832 90.9923 26.8944C90.9923 26.9008 90.9923 26.9056 90.9923 26.912C91.0006 26.9456 91.0006 26.9824 90.9923 27.016C90.3088 28.8512 89.4641 31.1184 89.356 31.3776V31.4816C89.346 31.6816 89.5073 31.8528 89.7152 31.8624C89.7218 31.8624 89.7268 31.8624 89.7335 31.8624H94.4826C94.8036 31.8608 95.0896 31.6672 95.2027 31.3776C95.2027 31.2224 96.2453 28.608 96.641 27.5872C96.7209 27.4128 96.7641 27.224 96.7674 27.0336C96.7674 26.1824 96.0507 25.4928 95.1661 25.4928C97.2862 25.0304 98.8809 23.344 99.1586 21.2704C99.1719 21.1264 99.1719 20.9824 99.1586 20.8384V20.7344C99.1536 19.36 98.0478 18.2208 96.6227 18.1216L96.5695 18.1888ZM92.6485 22.3264C92.6285 22.9728 92.0798 23.4864 91.408 23.4864H86.0835C85.7476 23.472 85.4616 23.2464 85.3818 22.9328C85.3734 22.8816 85.3734 22.8288 85.3818 22.7776C85.4084 22.2032 85.8523 21.7248 86.4427 21.6352H91.8387C92.1812 21.6416 92.4772 21.8688 92.5587 22.1888C92.5687 22.24 92.5687 22.2928 92.5587 22.344L92.6485 22.3264Z" fill="#EA0029"/>
</g>
<defs>
<clipPath id="clip0_10019_30470">
<rect width="119" height="32" fill="white"/>
</clipPath>
</defs>
</svg>
