<svg xmlns="http://www.w3.org/2000/svg" width="25" height="27" viewBox="0 0 25 27">
    <g fill="none" fill-rule="evenodd">
        <path fill="#9B9B9B" d="M15.143 6.326c.523 0 .962.178 1.317.533.355.354.533.794.533 1.317v10.536c0 .523-.178.981-.533 1.373a1.705 1.705 0 0 1-1.317.589H2.757c-.523 0-.99-.196-1.401-.589-.411-.392-.617-.85-.617-1.373V8.176c0-.523.196-.963.589-1.317.392-.355.868-.533 1.429-.533h12.386zm3.53 4.764l5.493-2.97v10.76l-5.492-2.97v-4.82z"/>
        <path stroke="#4A4A4A" stroke-linecap="square" d="M4.5 0L19 27"/>
    </g>
</svg>
