<svg xmlns="http://www.w3.org/2000/svg" width="19" height="27" viewBox="0 0 19 27">
    <g fill="none" fill-rule="evenodd">
        <path fill="#9B9B9B" fill-rule="nonzero" d="M16.071 13.393v1.786c0 4.129-3.125 7.533-7.142 7.98V25H12.5a.9.9 0 0 1 .893.893.9.9 0 0 1-.893.893H3.571a.9.9 0 0 1-.892-.893A.9.9 0 0 1 3.57 25h3.572v-1.842C3.125 22.712 0 19.308 0 15.178v-1.785a.9.9 0 0 1 .893-.893.9.9 0 0 1 .893.893v1.786a6.258 6.258 0 0 0 6.25 6.25 6.258 6.258 0 0 0 6.25-6.25v-1.786a.9.9 0 0 1 .893-.893.9.9 0 0 1 .892.893zM12.5 8.036v7.143a4.477 4.477 0 0 1-4.464 4.464 4.477 4.477 0 0 1-4.465-4.464V8.036A4.477 4.477 0 0 1 8.036 3.57 4.477 4.477 0 0 1 12.5 8.036z"/>
        <path stroke="#4A4A4A" stroke-linecap="square" d="M3.5 0L18 27"/>
    </g>
</svg>
